ffmpeg started on 2025-06-20 at 16:59:30
Report written to "D:\Convert\FFMetrics\reports\ssim_report-6.txt"
Log level: 32
Command line:
ffmpeg -hide_banner -nostdin -i "G:\\\xc0\xed\xe8\xec\xe5\\[\xd2\xee\xef]\\\xc2\xee\xeb\xf7\xe8\xf6\xe0 \xe8 \xef\xf0\xff\xed\xee\xf1\xf2\xe8\\\xd2\xee\xf0\xe3\xee\xe2\xe5\xf6 \xe2\xf1\xf2\xf0\xe5\xf7\xe0\xe5\xf2 \xec\xf3\xe4\xf0\xf3\xfe \xe2\xee\xeb\xf7\xe8\xf6\xf3\\DC_Ookami_to_Koushinryou_Merchant_Meets_the_Wise_Wolf_09_Telegram_HEVC.mkv" -i "G:\\\xc0\xed\xe8\xec\xe5\\[\xd2\xee\xef]\\\xc2\xee\xeb\xf7\xe8\xf6\xe0 \xe8 \xef\xf0\xff\xed\xee\xf1\xf2\xe8\\\xd2\xee\xf0\xe3\xee\xe2\xe5\xf6 \xe2\xf1\xf2\xf0\xe5\xf7\xe0\xe5\xf2 \xec\xf3\xe4\xf0\xf3\xfe \xe2\xee\xeb\xf7\xe8\xf6\xf3\\DC_Ookami_to_Koushinryou_Merchant_Meets_the_Wise_Wolf_09_Telegram.mp4" -lavfi "[0:v]settb=AVTB,setpts=PTS-STARTPTS,format=pix_fmts=yuv420p10,fps=24000/1001,scale=1920:1080:flags=bicubic[main];[1:v]settb=AVTB,setpts=PTS-STARTPTS,format=pix_fmts=yuv420p,fps=24000/1001,scale=1920:1080:flags=bicubic[ref];[main][ref]ssim=eof_action=endall:stats_file='D\\:/Convert/FFMetrics/logs/ssim_logfile-6.txt'" -f null -
Input #0, matroska,webm, from 'G:\Аниме\[Топ]\Волчица и пряности\Торговец встречает мудрую волчицу\DC_Ookami_to_Koushinryou_Merchant_Meets_the_Wise_Wolf_09_Telegram_HEVC.mkv':
  Metadata:
    COMPATIBLE_BRANDS: isomiso2avc1mp41
    MAJOR_BRAND     : isom
    MINOR_VERSION   : 512
    ENCODER         : Lavf61.7.100
  Duration: 00:23:57.65, start: -0.021000, bitrate: 757 kb/s
  Stream #0:0: Video: hevc (Main 10), yuv420p10le(tv, bt709, progressive), 1920x1080 [SAR 1:1 DAR 16:9], 23.98 fps, 23.98 tbr, 1k tbn (default)
      Metadata:
        HANDLER_NAME    : VideoHandler
        VENDOR_ID       : [0][0][0][0]
        ENCODER         : Lavc61.19.100 libx265
        BPS             : 560800
        DURATION        : 00:23:56.559708333
        NUMBER_OF_FRAMES: 34443
        NUMBER_OF_BYTES : 100702882
        _STATISTICS_WRITING_APP: mkvpropedit v66.0.0 ('Josie') 64-bit
        _STATISTICS_WRITING_DATE_UTC: 2025-06-20 10:28:49
        _STATISTICS_TAGS: BPS DURATION NUMBER_OF_FRAMES NUMBER_OF_BYTES
  Stream #0:1: Audio: aac (LC), 48000 Hz, stereo, fltp (default)
      Metadata:
        HANDLER_NAME    : SoundHandler
        VENDOR_ID       : [0][0][0][0]
        ENCODER         : Lavc61.19.100 aac
        BPS             : 192908
        DURATION        : 00:23:57.653000000
        NUMBER_OF_FRAMES: 67391
        NUMBER_OF_BYTES : 34666957
        _STATISTICS_WRITING_APP: mkvpropedit v66.0.0 ('Josie') 64-bit
        _STATISTICS_WRITING_DATE_UTC: 2025-06-20 10:28:49
        _STATISTICS_TAGS: BPS DURATION NUMBER_OF_FRAMES NUMBER_OF_BYTES
Input #1, mov,mp4,m4a,3gp,3g2,mj2, from 'G:\Аниме\[Топ]\Волчица и пряности\Торговец встречает мудрую волчицу\DC_Ookami_to_Koushinryou_Merchant_Meets_the_Wise_Wolf_09_Telegram.mp4':
  Metadata:
    major_brand     : isom
    minor_version   : 512
    compatible_brands: isomiso2avc1mp41
    encoder         : Lavf60.16.100
  Duration: 00:23:57.63, start: 0.000000, bitrate: 3377 kb/s
  Stream #1:0[0x1](und): Video: h264 (High) (avc1 / 0x31637661), yuv420p(tv, bt709, progressive), 1920x1080 [SAR 1:1 DAR 16:9], 3232 kb/s, 23.98 fps, 23.98 tbr, 24k tbn (default)
      Metadata:
        handler_name    : VideoHandler
        vendor_id       : [0][0][0][0]
        encoder         : Lavc60.31.102 h264_qsv
  Stream #1:1[0x2](und): Audio: aac (HE-AACv2) (mp4a / 0x6134706D), 48000 Hz, stereo, fltp, 144 kb/s (default)
      Metadata:
        handler_name    : SoundHandler
        vendor_id       : [0][0][0][0]
Stream mapping:
  Stream #0:0 (hevc) -> settb:default
  Stream #1:0 (h264) -> settb:default
  ssim:default -> Stream #0:0 (wrapped_avframe)
  Stream #0:1 -> #0:1 (aac (native) -> pcm_s16le (native))
Output #0, null, to 'pipe:':
  Metadata:
    COMPATIBLE_BRANDS: isomiso2avc1mp41
    MAJOR_BRAND     : isom
    MINOR_VERSION   : 512
    encoder         : Lavf61.7.100
  Stream #0:0: Video: wrapped_avframe, yuv420p10le(tv, bt709, progressive), 1920x1080 [SAR 1:1 DAR 16:9], q=2-31, 200 kb/s, 23.98 fps, 23.98 tbn
      Metadata:
        encoder         : Lavc61.19.100 wrapped_avframe
  Stream #0:1: Audio: pcm_s16le, 48000 Hz, stereo, s16, 1536 kb/s (default)
      Metadata:
        HANDLER_NAME    : SoundHandler
        VENDOR_ID       : [0][0][0][0]
        _STATISTICS_TAGS: BPS DURATION NUMBER_OF_FRAMES NUMBER_OF_BYTES
        BPS             : 192908
        DURATION        : 00:23:57.653000000
        NUMBER_OF_FRAMES: 67391
        NUMBER_OF_BYTES : 34666957
        _STATISTICS_WRITING_APP: mkvpropedit v66.0.0 ('Josie') 64-bit
        _STATISTICS_WRITING_DATE_UTC: 2025-06-20 10:28:49
        encoder         : Lavc61.19.100 pcm_s16le
frame=  186 fps=0.0 q=-0.0 size=N/A time=00:00:07.75 bitrate=N/A speed=15.1x    frame=  442 fps=431 q=-0.0 size=N/A time=00:00:18.43 bitrate=N/A speed=  18x    frame=  698 fps=454 q=-0.0 size=N/A time=00:00:29.11 bitrate=N/A speed=18.9x    frame=  984 fps=477 q=-0.0 size=N/A time=00:00:41.04 bitrate=N/A speed=19.9x    frame= 1269 fps=493 q=-0.0 size=N/A time=00:00:52.92 bitrate=N/A speed=20.6x    frame= 1535 fps=498 q=-0.0 size=N/A time=00:01:04.02 bitrate=N/A speed=20.8x    frame= 1769 fps=490 q=-0.0 size=N/A time=00:01:13.78 bitrate=N/A speed=20.4x    frame= 2018 fps=490 q=-0.0 size=N/A time=00:01:24.16 bitrate=N/A speed=20.4x    frame= 2290 fps=495 q=-0.0 size=N/A time=00:01:35.51 bitrate=N/A speed=20.6x    frame= 2574 fps=499 q=-0.0 size=N/A time=00:01:47.35 bitrate=N/A speed=20.8x    frame= 2824 fps=498 q=-0.0 size=N/A time=00:01:57.78 bitrate=N/A speed=20.8x    frame= 3097 fps=501 q=-0.0 size=N/A time=00:02:09.17 bitrate=N/A speed=20.9x    frame= 3314 fps=494 q=-0.0 size=N/A time=00:02:18.22 bitrate=N/A speed=20.6x    frame= 3519 fps=488 q=-0.0 size=N/A time=00:02:26.77 bitrate=N/A speed=20.4x    frame= 3710 fps=479 q=-0.0 size=N/A time=00:02:34.73 bitrate=N/A speed=  20x    frame= 3919 fps=475 q=-0.0 size=N/A time=00:02:43.45 bitrate=N/A speed=19.8x    frame= 4127 fps=471 q=-0.0 size=N/A time=00:02:52.13 bitrate=N/A speed=19.7x    frame= 4358 fps=470 q=-0.0 size=N/A time=00:03:01.76 bitrate=N/A speed=19.6x    frame= 4586 fps=468 q=-0.0 size=N/A time=00:03:11.27 bitrate=N/A speed=19.5x    frame= 4818 fps=468 q=-0.0 size=N/A time=00:03:20.95 bitrate=N/A speed=19.5x    frame= 5066 fps=468 q=-0.0 size=N/A time=00:03:31.29 bitrate=N/A speed=19.5x    frame= 5322 fps=469 q=-0.0 size=N/A time=00:03:41.97 bitrate=N/A speed=19.6x    frame= 5585 fps=471 q=-0.0 size=N/A time=00:03:52.94 bitrate=N/A speed=19.7x    frame= 5866 fps=474 q=-0.0 size=N/A time=00:04:04.66 bitrate=N/A speed=19.8x    frame= 6143 fps=477 q=-0.0 size=N/A time=00:04:16.21 bitrate=N/A speed=19.9x    frame= 6378 fps=476 q=-0.0 size=N/A time=00:04:26.01 bitrate=N/A speed=19.9x    frame= 6632 fps=476 q=-0.0 size=N/A time=00:04:36.60 bitrate=N/A speed=19.9x    frame= 6890 fps=477 q=-0.0 size=N/A time=00:04:47.37 bitrate=N/A speed=19.9x    frame= 7159 fps=479 q=-0.0 size=N/A time=00:04:58.58 bitrate=N/A speed=  20x    frame= 7403 fps=479 q=-0.0 size=N/A time=00:05:08.76 bitrate=N/A speed=  20x    frame= 7659 fps=479 q=-0.0 size=N/A time=00:05:19.44 bitrate=N/A speed=  20x    frame= 7932 fps=481 q=-0.0 size=N/A time=00:05:30.83 bitrate=N/A speed=20.1x    frame= 8187 fps=481 q=-0.0 size=N/A time=00:05:41.46 bitrate=N/A speed=20.1x    frame= 8445 fps=482 q=-0.0 size=N/A time=00:05:52.22 bitrate=N/A speed=20.1x    frame= 8715 fps=483 q=-0.0 size=N/A time=00:06:03.48 bitrate=N/A speed=20.1x    frame= 8940 fps=482 q=-0.0 size=N/A time=00:06:12.87 bitrate=N/A speed=20.1x    frame= 9201 fps=482 q=-0.0 size=N/A time=00:06:23.75 bitrate=N/A speed=20.1x    frame= 9474 fps=484 q=-0.0 size=N/A time=00:06:35.14 bitrate=N/A speed=20.2x    frame= 9696 fps=482 q=-0.0 size=N/A time=00:06:44.40 bitrate=N/A speed=20.1x    frame= 9963 fps=483 q=-0.0 size=N/A time=00:06:55.54 bitrate=N/A speed=20.1x    frame=10249 fps=485 q=-0.0 size=N/A time=00:07:07.46 bitrate=N/A speed=20.2x    frame=10546 fps=487 q=-0.0 size=N/A time=00:07:19.85 bitrate=N/A speed=20.3x    frame=10832 fps=489 q=-0.0 size=N/A time=00:07:31.78 bitrate=N/A speed=20.4x    frame=11117 fps=490 q=-0.0 size=N/A time=00:07:43.67 bitrate=N/A speed=20.4x    frame=11397 fps=491 q=-0.0 size=N/A time=00:07:55.34 bitrate=N/A speed=20.5x    frame=11677 fps=492 q=-0.0 size=N/A time=00:08:07.02 bitrate=N/A speed=20.5x    frame=11967 fps=494 q=-0.0 size=N/A time=00:08:19.12 bitrate=N/A speed=20.6x    frame=12239 fps=495 q=-0.0 size=N/A time=00:08:30.46 bitrate=N/A speed=20.6x    frame=12485 fps=494 q=-0.0 size=N/A time=00:08:40.72 bitrate=N/A speed=20.6x    frame=12729 fps=494 q=-0.0 size=N/A time=00:08:50.90 bitrate=N/A speed=20.6x    frame=12933 fps=492 q=-0.0 size=N/A time=00:08:59.41 bitrate=N/A speed=20.5x    frame=13195 fps=492 q=-0.0 size=N/A time=00:09:10.34 bitrate=N/A speed=20.5x    frame=13466 fps=493 q=-0.0 size=N/A time=00:09:21.64 bitrate=N/A speed=20.6x    frame=13726 fps=493 q=-0.0 size=N/A time=00:09:32.48 bitrate=N/A speed=20.6x    frame=14015 fps=494 q=-0.0 size=N/A time=00:09:44.54 bitrate=N/A speed=20.6x    frame=14273 fps=494 q=-0.0 size=N/A time=00:09:55.30 bitrate=N/A speed=20.6x    frame=14537 fps=494 q=-0.0 size=N/A time=00:10:06.31 bitrate=N/A speed=20.6x    frame=14812 fps=495 q=-0.0 size=N/A time=00:10:17.78 bitrate=N/A speed=20.7x    frame=15102 fps=496 q=-0.0 size=N/A time=00:10:29.87 bitrate=N/A speed=20.7x    frame=15373 fps=497 q=-0.0 size=N/A time=00:10:41.18 bitrate=N/A speed=20.7x    frame=15655 fps=498 q=-0.0 size=N/A time=00:10:52.94 bitrate=N/A speed=20.8x    frame=15950 fps=499 q=-0.0 size=N/A time=00:11:05.24 bitrate=N/A speed=20.8x    frame=16244 fps=500 q=-0.0 size=N/A time=00:11:17.51 bitrate=N/A speed=20.8x    frame=16511 fps=500 q=-0.0 size=N/A time=00:11:28.64 bitrate=N/A speed=20.9x    frame=16774 fps=500 q=-0.0 size=N/A time=00:11:39.61 bitrate=N/A speed=20.9x    frame=17054 fps=501 q=-0.0 size=N/A time=00:11:51.29 bitrate=N/A speed=20.9x    frame=17351 fps=502 q=-0.0 size=N/A time=00:12:03.68 bitrate=N/A speed=20.9x    frame=17632 fps=503 q=-0.0 size=N/A time=00:12:15.40 bitrate=N/A speed=  21x    frame=17931 fps=504 q=-0.0 size=N/A time=00:12:27.87 bitrate=N/A speed=  21x    frame=18217 fps=504 q=-0.0 size=N/A time=00:12:39.80 bitrate=N/A speed=  21x    frame=18488 fps=505 q=-0.0 size=N/A time=00:12:51.10 bitrate=N/A speed=  21x    frame=18715 fps=504 q=-0.0 size=N/A time=00:13:00.57 bitrate=N/A speed=  21x    frame=18940 fps=503 q=-0.0 size=N/A time=00:13:09.95 bitrate=N/A speed=  21x    frame=19177 fps=502 q=-0.0 size=N/A time=00:13:19.84 bitrate=N/A speed=  21x    frame=19427 fps=502 q=-0.0 size=N/A time=00:13:30.26 bitrate=N/A speed=20.9x    frame=19672 fps=502 q=-0.0 size=N/A time=00:13:40.48 bitrate=N/A speed=20.9x    frame=19918 fps=501 q=-0.0 size=N/A time=00:13:50.74 bitrate=N/A speed=20.9x    frame=20162 fps=501 q=-0.0 size=N/A time=00:14:00.92 bitrate=N/A speed=20.9x    frame=20394 fps=500 q=-0.0 size=N/A time=00:14:10.59 bitrate=N/A speed=20.9x    frame=20626 fps=500 q=-0.0 size=N/A time=00:14:20.27 bitrate=N/A speed=20.8x    frame=20859 fps=499 q=-0.0 size=N/A time=00:14:29.99 bitrate=N/A speed=20.8x    frame=21098 fps=499 q=-0.0 size=N/A time=00:14:39.96 bitrate=N/A speed=20.8x    frame=21348 fps=498 q=-0.0 size=N/A time=00:14:50.38 bitrate=N/A speed=20.8x    frame=21573 fps=498 q=-0.0 size=N/A time=00:14:59.77 bitrate=N/A speed=20.8x    frame=21809 fps=497 q=-0.0 size=N/A time=00:15:09.61 bitrate=N/A speed=20.7x    frame=22048 fps=497 q=-0.0 size=N/A time=00:15:19.58 bitrate=N/A speed=20.7x    frame=22283 fps=496 q=-0.0 size=N/A time=00:15:29.38 bitrate=N/A speed=20.7x    frame=22570 fps=497 q=-0.0 size=N/A time=00:15:41.35 bitrate=N/A speed=20.7x    frame=22847 fps=497 q=-0.0 size=N/A time=00:15:52.91 bitrate=N/A speed=20.7x    frame=23144 fps=498 q=-0.0 size=N/A time=00:16:05.29 bitrate=N/A speed=20.8x    frame=23427 fps=499 q=-0.0 size=N/A time=00:16:17.10 bitrate=N/A speed=20.8x    frame=23731 fps=500 q=-0.0 size=N/A time=00:16:29.78 bitrate=N/A speed=20.8x    frame=24006 fps=500 q=-0.0 size=N/A time=00:16:41.25 bitrate=N/A speed=20.9x    frame=24299 fps=501 q=-0.0 size=N/A time=00:16:53.47 bitrate=N/A speed=20.9x    frame=24600 fps=502 q=-0.0 size=N/A time=00:17:06.02 bitrate=N/A speed=20.9x    frame=24894 fps=503 q=-0.0 size=N/A time=00:17:18.28 bitrate=N/A speed=  21x    frame=25181 fps=503 q=-0.0 size=N/A time=00:17:30.25 bitrate=N/A speed=  21x    frame=25453 fps=503 q=-0.0 size=N/A time=00:17:41.60 bitrate=N/A speed=  21x    frame=25730 fps=504 q=-0.0 size=N/A time=00:17:53.15 bitrate=N/A speed=  21x    frame=26029 fps=505 q=-0.0 size=N/A time=00:18:05.62 bitrate=N/A speed=  21x    frame=26326 fps=505 q=-0.0 size=N/A time=00:18:18.01 bitrate=N/A speed=21.1x    frame=26621 fps=506 q=-0.0 size=N/A time=00:18:30.31 bitrate=N/A speed=21.1x    frame=26904 fps=506 q=-0.0 size=N/A time=00:18:42.12 bitrate=N/A speed=21.1x    frame=27186 fps=507 q=-0.0 size=N/A time=00:18:53.88 bitrate=N/A speed=21.1x    frame=27472 fps=507 q=-0.0 size=N/A time=00:19:05.81 bitrate=N/A speed=21.2x    frame=27740 fps=507 q=-0.0 size=N/A time=00:19:16.98 bitrate=N/A speed=21.2x    frame=28014 fps=507 q=-0.0 size=N/A time=00:19:28.41 bitrate=N/A speed=21.2x    frame=28303 fps=508 q=-0.0 size=N/A time=00:19:40.47 bitrate=N/A speed=21.2x    frame=28527 fps=507 q=-0.0 size=N/A time=00:19:49.81 bitrate=N/A speed=21.2x    frame=28765 fps=507 q=-0.0 size=N/A time=00:19:59.74 bitrate=N/A speed=21.1x    frame=29051 fps=507 q=-0.0 size=N/A time=00:20:11.66 bitrate=N/A speed=21.2x    frame=29316 fps=507 q=-0.0 size=N/A time=00:20:22.72 bitrate=N/A speed=21.2x    frame=29598 fps=508 q=-0.0 size=N/A time=00:20:34.48 bitrate=N/A speed=21.2x    frame=29863 fps=508 q=-0.0 size=N/A time=00:20:45.53 bitrate=N/A speed=21.2x    frame=30120 fps=508 q=-0.0 size=N/A time=00:20:56.25 bitrate=N/A speed=21.2x    frame=30346 fps=507 q=-0.0 size=N/A time=00:21:05.68 bitrate=N/A speed=21.1x    frame=30584 fps=507 q=-0.0 size=N/A time=00:21:15.60 bitrate=N/A speed=21.1x    frame=30870 fps=507 q=-0.0 size=N/A time=00:21:27.53 bitrate=N/A speed=21.1x    frame=31129 fps=507 q=-0.0 size=N/A time=00:21:38.33 bitrate=N/A speed=21.1x    frame=31362 fps=507 q=-0.0 size=N/A time=00:21:48.05 bitrate=N/A speed=21.1x    frame=31644 fps=507 q=-0.0 size=N/A time=00:21:59.81 bitrate=N/A speed=21.1x    frame=31917 fps=507 q=-0.0 size=N/A time=00:22:11.20 bitrate=N/A speed=21.2x    frame=32192 fps=507 q=-0.0 size=N/A time=00:22:22.67 bitrate=N/A speed=21.2x    frame=32479 fps=508 q=-0.0 size=N/A time=00:22:34.64 bitrate=N/A speed=21.2x    frame=32720 fps=507 q=-0.0 size=N/A time=00:22:44.69 bitrate=N/A speed=21.2x    frame=32980 fps=507 q=-0.0 size=N/A time=00:22:55.54 bitrate=N/A speed=21.2x    frame=33245 fps=507 q=-0.0 size=N/A time=00:23:06.59 bitrate=N/A speed=21.2x    frame=33507 fps=507 q=-0.0 size=N/A time=00:23:17.52 bitrate=N/A speed=21.2x    frame=33757 fps=507 q=-0.0 size=N/A time=00:23:27.94 bitrate=N/A speed=21.2x    frame=34042 fps=508 q=-0.0 size=N/A time=00:23:39.83 bitrate=N/A speed=21.2x    frame=34317 fps=508 q=-0.0 size=N/A time=00:23:51.30 bitrate=N/A speed=21.2x    [Parsed_ssim_10 @ 0000029cfd3a2340] SSIM Y:0.994782 (22.824659) U:0.994894 (22.918773) V:0.995208 (23.194786) All:0.994871 (22.899957)
[out#0/null @ 0000029cfcb45480] video:14800KiB audio:269564KiB subtitle:0KiB other streams:0KiB global headers:0KiB muxing overhead: unknown
frame=34443 fps=508 q=-0.0 Lsize=N/A time=00:23:56.56 bitrate=N/A speed=21.2x    
